HIERARCHY
ROOT Hips
{
	OFFSET	0.00	0.00	0.00
	CHANNELS 6 Xposition Yposition Zposition Zrotation Xrotation Yrotation
	JOINT Chest
	{
		OFFSET	0.000000	6.275751	0.000000
		CHANNELS 3 Zrotation Xrotation Yrotation
		JOINT Neck
		{
			OFFSET	0.000000	14.296947	0.000000
			CHANNELS 3 Zrotation Xrotation Yrotation
			JOINT Head
			{
				OFFSET	0.000000	2.637461	0.000000
				CHANNELS 3 Zrotation Xrotation Yrotation
				End Site
				{
					OFFSET	0.000000	4.499004	0.000000
				}
			}
		}
		JOINT LeftCollar
		{
			OFFSET	1.120000	11.362855	1.870000
			CHANNELS 3 Zrotation Xrotation Yrotation
			JOINT LeftUpArm
			{
				OFFSET	4.565688	2.019026	-1.821179
				CHANNELS 3 Zrotation Xrotation Yrotation
				JOINT LeftLowArm
				{
					OFFSET	0.219729	-10.348825	-0.061708
					CHANNELS 3 Zrotation Xrotation Yrotation
					JOINT LeftHand
					{
						OFFSET	0.087892	-10.352228	2.178217
						CHANNELS 3 Zrotation Xrotation Yrotation
						End Site
						{
							OFFSET	0.131837	-6.692379	1.711456
						}
					}
				}
			}
		}
		JOINT RightCollar
		{
			OFFSET	-1.120000	11.362855	1.870000
			CHANNELS 3 Zrotation Xrotation Yrotation
			JOINT RightUpArm
			{
				OFFSET	-4.708080	2.034554	-1.821179
				CHANNELS 3 Zrotation Xrotation Yrotation
				JOINT RightLowArm
				{
					OFFSET	-0.263676	-10.428555	-0.061708
					CHANNELS 3 Zrotation Xrotation Yrotation
					JOINT RightHand
					{
						OFFSET	0.000000	-10.255345	2.178217
						CHANNELS 3 Zrotation Xrotation Yrotation
						End Site
						{
							OFFSET	-0.140882	-6.671274	1.711456
						}
					}
				}
			}
		}
	}
	JOINT LeftUpLeg
	{
		OFFSET	3.910000	0.000000	0.000000
		CHANNELS 3 Zrotation Xrotation Yrotation
		JOINT LeftLowLeg
		{
			OFFSET	-0.441177	-17.569450	1.695613
			CHANNELS 3 Zrotation Xrotation Yrotation
			JOINT LeftFoot
			{
				OFFSET	-0.043946	-17.197315	-1.478076
				CHANNELS 3 Zrotation Xrotation Yrotation
				End Site
				{
					OFFSET	0.000000	-3.933155	5.233925
				}
			}
		}
	}
	JOINT RightUpLeg
	{
		OFFSET	-3.910000	0.000000	0.000000
		CHANNELS 3 Zrotation Xrotation Yrotation
		JOINT RightLowLeg
		{
			OFFSET	0.437741	-17.622387	1.695613
			CHANNELS 3 Zrotation Xrotation Yrotation
			JOINT RightFoot
			{
				OFFSET	0.000000	-17.140001	-1.478076
				CHANNELS 3 Zrotation Xrotation Yrotation
				End Site
				{
					OFFSET	0.000000	-4.038528	5.233925
				}
			}
		}
	}
}
MOTION
Frames: 14
Frame Time: 0.04166667
1213.668823	5.912603	-1.643390	3.002651	-1.575406	77.540169	-3.806745	10.305478	-10.224231	11.065851	-3.465815	15.225967	-5.454136	-6.109891	-2.176623	-21.475487	32.405056	18.416172	60.739582	-73.841667	4.001755	10.733006	-68.294540	-8.741178	7.095864	2.557873	1.504465	22.484730	17.199993	-9.362299	-40.717503	-10.152739	-4.796726	2.497671	-58.917225	-7.737721	5.990156	2.462960	1.282805	-5.869477	33.292194	-1.276606	-1.132591	-1.053492	2.684512	-27.546915	23.716679	14.300223	6.419881	-37.171257	0.720509	-0.513682	61.750423	-7.556638	-14.158467	-11.996757	3.535451	
1217.148682	6.407270	-1.584077	3.104263	-0.388285	77.130196	-6.408772	8.620274	-9.628162	13.051127	-1.945319	15.389075	-5.300452	-4.445889	-1.965362	-19.024153	32.072323	16.738897	52.625435	-68.359291	-8.839826	10.197070	-65.728104	-10.261684	7.224000	2.558220	1.531401	21.959751	12.998791	-6.970545	-34.807671	-3.838156	-4.830182	0.735404	-60.451889	-4.675117	-0.657799	2.396133	-0.140930	-8.114383	27.452177	-0.081976	-1.831637	18.828337	-1.283685	-30.416246	23.352276	15.882765	5.116782	-24.362366	-1.640829	1.155328	30.272652	-5.562022	-8.945639	-8.723577	4.602574	
1223.123291	6.405779	-1.532829	3.132004	1.464871	78.512619	-9.003507	7.945182	-8.826128	14.012658	-1.658320	13.056168	-5.012468	-2.854014	-1.721336	-15.749290	30.290325	13.214642	44.575256	-59.366188	-18.298691	6.032118	-58.431458	-8.726963	-0.453894	2.463695	-0.096370	21.124718	7.586790	-5.759448	-28.196903	-2.226758	-4.062307	-0.337717	-60.165451	-3.115527	-19.744638	3.119784	-4.155377	-8.326719	18.304838	3.103293	-2.559280	44.310204	-6.947459	-25.291370	21.215233	11.970977	4.218854	-5.524403	-7.802153	1.836248	-9.185807	4.540295	-3.081916	3.423524	5.519103	
1228.697632	5.775079	-1.436493	4.019840	2.340713	80.356323	-8.876259	8.223763	-7.979322	12.405074	-0.945886	9.599871	-4.901853	-2.336789	-1.639339	-14.339132	26.029587	8.779834	39.309864	-47.343449	-23.673946	4.216206	-47.177246	-8.451798	-6.219224	2.534305	-1.319263	20.485800	6.509073	-5.169699	-25.890192	-7.720103	1.260898	3.063979	-59.105621	-8.597269	0.112915	2.395890	0.024357	-5.957518	8.476981	4.653708	-2.238473	69.499893	-8.456923	-24.134560	22.938274	12.011133	2.787651	-2.162740	-11.006413	1.982692	-9.180887	6.200119	1.023662	4.829229	4.801760	
1233.385742	4.571686	-1.237898	4.497636	1.585529	81.739273	-5.312013	7.021102	-6.850331	8.223430	1.399688	5.945950	-3.697243	-3.232260	-1.292120	-13.903727	20.550127	4.455435	34.856815	-33.833302	-25.307713	4.762739	-36.322945	-12.694704	4.859367	2.506310	1.031569	17.732414	8.635691	-4.489473	-25.832186	-17.915482	8.126256	2.414562	-57.779747	-7.968307	-2.438236	2.408010	-0.522799	-0.047438	-2.905593	7.540705	159.567657	86.776047	-165.798584	-17.907040	23.184597	8.713714	4.214443	-2.088937	-20.232012	2.462121	3.113783	8.949957	-16.437923	1.011490	7.136782	
1238.742432	3.528089	-1.074440	0.421306	-0.730947	81.584114	4.117646	0.130306	-6.436616	-0.688376	5.265049	4.966336	-1.291564	-6.135256	-0.514494	-14.297051	8.789025	-2.072215	28.552532	-10.445159	-20.185619	5.365417	-32.288506	-15.843594	2.372088	2.472906	0.503969	7.756068	9.228832	-0.084195	-23.042662	-26.149607	15.733180	0.263477	-58.341446	-4.235489	-8.658968	2.537081	-1.850538	9.521370	-21.542185	14.296540	171.711990	69.166389	-171.803848	-3.331541	24.184385	1.438444	4.490102	-6.298216	-15.878684	2.170871	19.175253	5.141159	-16.065313	-12.925720	3.061235	
1241.269897	3.309309	-1.068773	-2.724708	-2.278707	81.797691	10.867928	-0.973307	-3.763619	-6.386578	3.850543	1.944997	0.069270	-8.334220	0.030124	-18.675089	8.135601	-2.120525	29.851370	-1.374976	-13.125174	4.672065	-35.020100	-12.710419	1.211632	2.462408	0.257165	3.410051	13.722700	-0.123495	-22.978422	-40.487579	17.062077	-1.023530	-61.403034	-2.062666	-6.949509	2.487403	-1.487106	17.248346	-39.446396	21.446690	171.648682	62.287342	-166.846649	10.778775	22.289629	-5.377281	5.527800	-0.921884	-14.501026	2.171348	16.966057	4.870908	-13.488841	-18.188276	2.136342	
1247.054443	3.614953	-0.957899	-1.983477	-2.272063	84.462936	10.457322	1.962279	-1.678350	-6.746830	1.444013	-3.711991	2.363803	-9.178946	1.061513	-20.635521	12.925498	0.612168	33.897118	0.194040	-11.890752	4.576694	-39.014587	-11.433861	4.318685	2.500367	0.917266	5.144579	18.961311	-4.062114	-23.312920	-54.011524	16.489159	7.440286	-68.629509	-8.717334	-1.752424	2.403226	-0.375893	15.214314	-48.045517	17.367233	171.456635	65.974892	-168.404358	11.316428	14.274819	-4.156810	7.025750	15.405463	-17.755157	2.057881	0.271970	5.581179	-10.007775	-14.851434	3.472796	
1253.367920	4.262990	-0.633921	-0.235157	-0.336408	90.941040	5.928465	2.610015	-2.917629	-5.949693	1.263578	-9.950787	5.986820	-6.825786	2.462655	-18.607304	15.368412	0.479379	36.049862	5.238809	-11.267849	2.822668	-41.104290	-5.738338	-1.280989	2.464514	-0.272343	6.772645	19.699192	-7.677020	-17.372637	-60.940586	20.201227	20.487602	-73.039253	-11.847061	-1.138145	2.399642	-0.244128	3.004332	-50.041588	1.911621	169.353256	78.564842	-171.228226	5.864306	6.836782	-1.483104	9.373494	28.010569	-25.050575	1.820509	-9.187392	4.299954	-7.345212	-4.344018	5.240902	
1260.136597	5.123494	-0.284349	2.324853	2.169898	98.583702	0.906520	5.078349	-5.793601	-5.041450	0.812521	-15.000704	7.715659	-3.216311	2.707526	-17.521379	19.746338	-0.938717	39.105732	7.595051	-7.987428	1.661654	-43.367622	-2.242534	-4.698065	2.505549	-0.997090	11.322021	20.799479	-13.800209	-8.590509	-68.504486	23.483046	21.606592	-70.424995	-18.708538	4.890719	2.442271	1.047729	-9.257598	-44.246647	-13.710848	2.579294	81.314087	-7.749491	2.582423	0.532828	-0.461179	6.585547	27.926355	-36.913101	2.536722	6.854403	6.471344	-7.316597	8.047049	6.822732	
1265.626709	5.884846	-0.177011	4.099232	3.007826	102.061470	0.512242	7.069301	-7.223125	-6.312582	0.874297	-17.033447	7.668483	-2.243984	2.561886	-19.013725	21.095097	-2.856352	40.322540	8.700465	-4.410452	1.773065	-43.976006	-2.510953	-2.105523	2.472259	-0.447205	15.070324	22.136280	-20.007610	10.055048	-75.599823	36.052616	13.242984	-59.265156	-27.167456	7.652663	2.505132	1.637053	-11.658060	-33.909122	-20.034557	-1.725519	54.479637	-2.554410	1.521549	-3.953053	-0.213386	3.460727	26.774508	-32.383179	1.789740	19.835054	1.392407	-8.675580	24.446165	9.476930	
1269.034790	6.341148	-0.318543	6.129678	2.591101	100.574600	2.875923	10.870156	-7.039702	-7.865396	-0.905350	-15.953150	6.714926	-1.833332	2.192282	-24.095518	25.394846	-0.106886	43.127766	-1.743064	-0.516508	2.605438	-41.077957	-5.103726	0.586495	2.462511	0.124587	21.715624	25.875626	-27.982790	82.968094	-79.603073	103.494431	7.550948	-39.761509	-30.464895	9.016464	2.549634	1.926218	-5.250270	-16.225370	-19.637478	-1.807109	14.012692	-1.482952	-2.340520	-1.955474	-0.014858	3.281245	23.715553	-18.788843	0.252333	36.198933	-8.746717	-11.324844	25.901976	11.119041	
1274.821289	6.153053	-0.609423	5.777884	1.835557	97.121872	3.377113	10.404902	-6.172031	-6.904282	-0.314847	-12.581635	4.923666	-0.741012	1.510317	-24.510313	24.158499	-0.326520	43.072601	-8.600620	0.006359	2.652273	-36.887241	-5.708279	-0.373363	2.464899	-0.079097	21.509821	24.389849	-27.714411	113.068588	-75.992821	101.117493	14.477781	-11.677262	-18.718575	1.670861	2.403005	0.358322	-1.198028	-7.182000	-20.156343	-1.433491	-9.222219	-1.330178	-4.837286	2.103615	0.484659	1.186404	13.008463	-11.211945	-2.178474	61.007313	-14.821883	-13.358874	25.305344	12.127906	
1279.834717	5.332950	-0.944253	6.175618	0.847306	93.112549	2.663657	10.146015	-4.448185	-3.692662	0.734093	-9.191395	2.986666	0.704456	0.839374	-24.097122	24.260845	-0.343277	44.688213	-18.010105	-0.063414	2.506626	-34.543484	-5.465815	-1.075772	2.461741	-0.229065	20.995201	22.683111	-26.106216	126.716759	-75.936646	92.944901	7.107922	5.376614	-5.333183	9.755013	2.574823	2.082700	-1.082003	-3.841976	-14.275242	-1.524906	-9.218709	-2.353595	-4.899813	3.836975	0.637341	-3.016998	1.785930	-12.184031	-28.723223	83.398605	-0.345881	-22.480000	22.304495	16.284506	
